<?xml version="1.0" encoding="UTF-8" standalone="no"?>
<svg width="128px" height="128px" viewBox="0 0 128 128" version="1.1" xmlns="http://www.w3.org/2000/svg">
<title>quic-pick</title>
<g id="badge" transform="matrix(0.06181448,0,0,-0.06181448,-3.0571618,108.19833)">
  <path d="m 1930.63,1200.17 -721.94,416.81 c -41.4,23.9 -92.39,23.9 -133.78,0 l -478.703,-276.38 0.18,-0.11 -4.821,-2.78 c 13.668,-4.14 26.887,-9.78 39.286,-17.01 l 19.343,-11.29 0.039,0.01 136.536,-78.79 -58.895,-34 -126.719,73.16 -0.011,-0.02 c -41.504,24.21 -94.426,22.04 -134.504,-5.68 13.066,-4.09 25.703,-9.55 37.589,-16.49 l 29.563,-17.25 h -0.004 l 126.25,-72.89 -58.84,-33.97 -128.332,74.06 c -45.953,25.86 -105.254,19.83 -145.804,-16.96 -25.833,-24.9 -40.977,-59.49 -40.977,-96.28 V 755.898 c 0,-47.777 25.496,-91.937 66.887,-115.847 L 1074.91,223.25 c 41.39,-23.898 92.38,-23.898 130.73,-1.762 l 479.18,276.653 -0.01,0.007 4.88,2.813 c -13.66,4.141 -26.88,9.777 -39.28,17.008 l -19.35,11.281 -0.11,-0.02 -729.54,421.012 58.949,34.028 719.611,-415.461 0.15,0.082 c 41.52,-24.231 94.47,-22.032 134.57,5.73 -12.7,3.969 -24.98,9.199 -36.57,15.859 l -7.7,4.45 -12.73,7.429 -0.11,-0.019 -729.38,421.09 58.78,33.94 720.07,-415.55 c 43.8,-25.379 100.18,-21.398 140.81,10.852 3.38,2.808 6.81,5.566 9.87,8.609 25.61,25.43 39.78,59.02 39.78,94.617 v 328.422 c 0,47.79 -25.5,91.95 -66.88,115.85" style="fill:#284058;fill-opacity:1;fill-rule:nonzero;stroke:none" id="dark" />
  <path d="m 1141.79,681.512 -411.028,237.281 411.028,237.277 411.02,-237.277 -56.36,-32.539 185.58,-107.152 64.88,37.457 V 1021.02 L 1141.8,1370.35 536.672,1021.02 V 816.559 L 1141.8,467.23 l 241.93,139.668 -185.59,107.141 -56.35,-32.527" style="fill:#5dcae9;fill-opacity:1;fill-rule:nonzero;stroke:none" id="light" />
</g>
<g style="fill:#000000;fill-opacity:1;stroke:none">
  <rect style="" width="5" height="15" x="20" y="85"/>
  <rect width="5" height="15" x="20" y="105"/>
  <rect width="15.433795" height="5" x="25" y="100"/>
  <rect width="15" height="5" x="5" y="100"/>
</g>
</svg>
